# xmcd CD database file generated by OrangeCD 6.5
#
# Track frame offsets:
#	150
#	19102
#	34281
#	45973
#	58150
#	71993
#	86825
#	98653
#	110458
#	123195
#	134647
#	149749
#	165073
#	177294
#	193932
#	211354
#	222826
#	239770
#	256146
#	270562
#	285607
#
# Disc length: 3956 seconds
#
# Revision: 0
# Processed by: cddbd v1.5.2PL0 Copyright (c) Steve Scherf et al.
# Submitted via: OrangeCD 6.5
#
DISCID=420f7215
DTITLE=Merle Haggard - The Epic Collection - Chill Factor - 5:01 Blues
DYEAR=2013
DGENRE=
TTITLE0=Medley: Honky Tonk Night Time Man - Old Man From The Mountain
TTITLE1=Holding Things Together
TTITLE2=Sing A Sad Song
TTITLE3=Every Fool Has A Rainbow
TTITLE4=Blue Yodel No 2
TTITLE5=Trouble In Mind
TTITLE6=Things Aren't Funny Anymore
TTITLE7=(My Friends Are Gonna Be) Strangers
TTITLE8=I Always Get Lucky With You
TTITLE9=Workin' Man Blues
TTITLE10=Chill Factor
TTITLE11=Twinkle Twinkle Lucky Star
TTITLE12=Man From Another Time
TTITLE13=We Never Touch At All
TTITLE14=You Babe
TTITLE15=Thanking The Good Lord
TTITLE16=After Dark
TTITLE17=1929
TTITLE18=Thirty Again
TTITLE19=I Don't Have Any Love Around
TTITLE20=More Than This Old Heart Can Take
EXTD=
EXTT0=
EXTT1=
EXTT2=
EXTT3=
EXTT4=
EXTT5=
EXTT6=
EXTT7=
EXTT8=
EXTT9=
EXTT10=
EXTT11=
EXTT12=
EXTT13=
EXTT14=
EXTT15=
EXTT16=
EXTT17=
EXTT18=
EXTT19=
EXTT20=
PLAYORDER=
